<svg width="20" height="20" viewBox="0 0 20 20" fill="none" xmlns="http://www.w3.org/2000/svg">
<path d="M10 0L11.5891 5.90201C11.783 6.62222 11.88 6.98232 12.0713 7.27672C12.2407 7.53721 12.4628 7.75929 12.7233 7.92867C13.0177 8.12 13.3778 8.217 14.098 8.41089L20 10L14.098 11.5891C13.3778 11.783 13.0177 11.88 12.7233 12.0713C12.4628 12.2407 12.2407 12.4628 12.0713 12.7233C11.88 13.0177 11.783 13.3778 11.5891 14.098L10 20L8.41089 14.098C8.217 13.3778 8.12 13.0177 7.92867 12.7233C7.75929 12.4628 7.53721 12.2407 7.27672 12.0713C6.98232 11.88 6.62222 11.783 5.90201 11.5891L0 10L5.90201 8.41089C6.62222 8.217 6.98232 8.12 7.27672 7.92867C7.53721 7.75929 7.75929 7.53721 7.92867 7.27672C8.12 6.98232 8.217 6.62222 8.41089 5.90201L10 0Z" fill="white" fill-opacity="0.376471"/>
</svg>
