<svg width="45" height="45" viewBox="0 0 45 45" fill="none" xmlns="http://www.w3.org/2000/svg">
<path d="M22.5 0L26.0755 13.2795C26.5117 14.9 26.73 15.7102 27.1605 16.3726C27.5415 16.9587 28.0413 17.4584 28.6275 17.8395C29.2898 18.27 30.1 18.4883 31.7205 18.9245L45 22.5L31.7205 26.0755C30.1 26.5117 29.2898 26.73 28.6275 27.1605C28.0413 27.5415 27.5415 28.0413 27.1605 28.6275C26.73 29.2898 26.5117 30.1 26.0755 31.7205L22.5 45L18.9245 31.7205C18.4883 30.1 18.27 29.2898 17.8395 28.6275C17.4584 28.0413 16.9587 27.5415 16.3726 27.1605C15.7102 26.73 14.9 26.5117 13.2795 26.0755L0 22.5L13.2795 18.9245C14.9 18.4883 15.7102 18.27 16.3726 17.8395C16.9587 17.4584 17.4584 16.9587 17.8395 16.3726C18.27 15.7102 18.4883 14.9 18.9245 13.2795L22.5 0Z" fill="white"/>
</svg>
